<?xml version="1.0" encoding="UTF-8"?>
<svg xmlns="http://www.w3.org/2000/svg" xmlns:xlink="http://www.w3.org/1999/xlink" width="209px" height="131px" viewBox="0 0 723 131" version="1.1">
<g id="surface1">
<path style=" stroke:none;fill-rule:evenodd;fill:rgb(83.529413%,9.803922%,0%);fill-opacity:1;" d="M 262.335938 47.527344 C 262.335938 46.335938 263.144531 45.699219 264.160156 45.699219 C 265.882812 45.699219 268.480469 47.527344 269.945312 51.183594 C 269.417969 51.183594 268.628906 51.34375 268.097656 51.34375 C 264.964844 51.34375 262.335938 49.851562 262.335938 47.527344 Z M 72.78125 47.527344 C 72.78125 46.335938 73.558594 45.699219 74.617188 45.699219 C 76.296875 45.699219 78.789062 47.527344 80.234375 51.183594 C 75.394531 51.183594 72.78125 50.136719 72.78125 47.527344 Z M 109.34375 28.628906 C 109.34375 9.0625 113.148438 6.054688 114.332031 6.054688 C 116.433594 6.054688 116.683594 7.367188 116.683594 14.871094 C 116.683594 22.582031 113.402344 32.671875 109.34375 38.210938 Z M 242.425781 47.917969 C 240.171875 51.0625 238.34375 55.53125 238.34375 61.289062 C 238.34375 72.3125 244.625 82.835938 256.828125 82.835938 C 268.628906 82.835938 276.894531 73.503906 276.894531 60.492188 C 276.894531 56.714844 276.75 56.191406 276.503906 54.625 C 279.246094 53.429688 281.613281 51.597656 283.457031 50.136719 C 285.023438 48.957031 286.195312 48.292969 287.128906 48.292969 C 288.304688 48.292969 288.820312 49.214844 288.820312 50.917969 L 288.820312 76.664062 C 288.820312 80.859375 290.144531 82.835938 293.410156 82.835938 C 296.417969 82.835938 298.53125 80.722656 299.703125 78.234375 C 304.042969 69.175781 310.324219 57.105469 313.066406 52.519531 C 313.726562 51.46875 314.261719 50.664062 314.636719 50.664062 C 315.160156 50.664062 315.433594 51.0625 315.433594 52.761719 L 315.433594 73.257812 C 315.433594 79.023438 318.0625 82.835938 323.808594 82.835938 C 329.851562 82.835938 332.851562 77.042969 338.132812 68.121094 C 338.382812 67.585938 338.496094 67.203125 338.496094 66.824219 C 338.496094 65.640625 337.472656 64.96875 336.417969 64.96875 C 335.226562 64.96875 334.570312 66.160156 330.648438 70.480469 C 329.851562 71.300781 329.082031 72.4375 327.625 72.4375 C 327.105469 72.4375 326.707031 71.804688 326.707031 71.003906 L 326.707031 48.027344 C 326.707031 41.859375 323.949219 39.367188 320.410156 39.367188 C 317.53125 39.367188 315.160156 40.550781 312.675781 44.226562 C 308.214844 50.804688 303.628906 60.128906 301.144531 64.828125 C 300.867188 65.378906 300.488281 66.160156 300.234375 66.160156 C 299.960938 66.160156 299.84375 65.757812 299.84375 64.828125 L 299.84375 48.027344 C 299.84375 43.183594 298.53125 39.367188 293.410156 39.367188 C 288.03125 39.367188 285.28125 43.050781 281.347656 45.800781 C 278.855469 47.65625 276.636719 48.957031 274.9375 49.742188 C 272.300781 43.050781 267.457031 39.65625 263.394531 39.757812 C 259.316406 39.898438 256.433594 42.40625 256.433594 46.609375 C 256.433594 50.917969 259.070312 53.921875 262.59375 55.257812 C 264.550781 56.042969 266.394531 56.191406 269.03125 56.191406 C 269.820312 56.191406 270.601562 56.191406 271.105469 56.042969 C 271.386719 57.351562 271.261719 59.214844 271.261719 60.652344 C 271.261719 67.09375 267.457031 73.503906 260.386719 73.503906 C 253.027344 73.503906 248.71875 66.417969 248.71875 58.285156 C 248.71875 52.109375 250.542969 47 253.539062 43.46875 C 254.746094 42.148438 255.648438 41.347656 255.648438 40.136719 C 255.648438 39.523438 254.746094 39.367188 253.953125 39.367188 C 248.957031 39.367188 243.46875 41.605469 239.675781 43.566406 C 234.667969 46.195312 228.78125 50.542969 223.921875 54.871094 C 221.566406 49.605469 218.683594 45.011719 217.234375 41.457031 C 216.710938 40.015625 216.332031 38.339844 215.28125 38.339844 C 214.351562 38.339844 213.945312 39.257812 213.304688 41.066406 C 210.953125 48.027344 198.359375 68.390625 195.605469 71.144531 C 195.347656 71.523438 194.964844 71.9375 194.839844 71.9375 C 194.554688 71.9375 194.40625 71.804688 194.40625 71.003906 L 194.40625 48.027344 C 194.40625 41.859375 191.917969 39.367188 188.535156 39.367188 C 185.636719 39.367188 183.15625 40.550781 180.800781 44.226562 C 176.480469 50.804688 171.210938 60.386719 168.730469 65.101562 C 168.328125 65.910156 167.933594 66.160156 167.800781 66.160156 C 167.667969 66.160156 167.5625 65.640625 167.5625 64.828125 L 167.5625 48.027344 C 167.5625 41.859375 165.0625 39.367188 161.648438 39.367188 C 158.757812 39.367188 156.019531 40.445312 153.777344 44.226562 C 148.28125 53.558594 139.109375 67.863281 137.402344 70.210938 C 137.140625 70.613281 136.875 70.878906 136.613281 71.003906 C 136.355469 71.003906 136.203125 70.75 136.203125 70.097656 L 136.203125 48.027344 C 136.203125 41.859375 133.71875 39.367188 130.328125 39.367188 C 125.601562 39.367188 122.992188 43.71875 121.273438 46.460938 C 118.898438 50.265625 115.765625 55.398438 113.285156 60.128906 C 111.574219 63.296875 110.121094 66.160156 109.59375 66.160156 C 109.34375 66.160156 109.34375 64.96875 109.34375 62.746094 L 109.34375 45.164062 C 117.589844 35.957031 122.707031 24.679688 122.707031 12.34375 C 122.707031 5.238281 119.574219 1.320312 114.734375 1.320312 C 105.667969 1.320312 98.738281 15.503906 98.738281 32.289062 L 98.738281 45.941406 C 94.535156 48.570312 90.597656 49.851562 85.738281 50.804688 C 83.257812 43.46875 78.003906 39.65625 73.824219 39.757812 C 69.769531 39.898438 66.871094 42.40625 66.871094 46.609375 C 66.871094 53.558594 73.691406 56.445312 79.707031 56.445312 L 81.414062 56.445312 C 81.671875 57.765625 81.671875 59.214844 81.671875 60.652344 C 81.671875 67.09375 77.871094 73.503906 70.8125 73.503906 C 63.476562 73.503906 59.136719 66.417969 59.136719 58.285156 C 59.136719 52.109375 60.953125 47 63.972656 43.46875 C 65.160156 42.148438 66.085938 40.964844 66.085938 40.136719 C 66.085938 39.523438 65.160156 39.367188 64.367188 39.367188 C 59.386719 39.367188 48.386719 46.089844 35.269531 59.214844 C 34.105469 48.710938 32.785156 38.460938 32.785156 28.480469 C 32.785156 17.332031 34.988281 7.859375 35.515625 5.128906 C 35.777344 3.433594 35.941406 2.367188 35.941406 1.597656 C 35.941406 0.539062 35.382812 0 33.972656 0 C 23.339844 0 0 16.941406 0 42.273438 C 0 60.234375 6.570312 68.90625 17.953125 80.0625 C 11.042969 91.222656 5.5 104.472656 5.5 116.289062 C 5.5 124.804688 7.484375 131.257812 13.761719 131.257812 C 26.875 131.257812 36.699219 103.96875 36.699219 83.742188 C 36.699219 77.710938 36.457031 71.667969 35.941406 65.640625 C 40.777344 60.492188 48.253906 53.558594 50.074219 52.902344 C 49.292969 55.660156 48.769531 58.558594 48.769531 61.289062 C 48.769531 72.3125 55.074219 82.835938 67.253906 82.835938 C 78.675781 82.835938 87.316406 73.503906 87.316406 60.492188 C 87.316406 58.8125 87.179688 57.351562 87.0625 55.78125 C 91.238281 54.996094 95.078125 53.921875 98.738281 51.726562 L 98.738281 78.101562 C 98.738281 81.5 101.082031 82.835938 103.3125 82.835938 C 106.34375 82.835938 107.914062 80.722656 110.121094 75.894531 C 111.980469 71.9375 116.941406 62.890625 119.957031 57.492188 C 122.332031 53.277344 123.644531 50.542969 124.699219 50.542969 C 124.945312 50.542969 125.222656 51.183594 125.222656 52.761719 L 125.222656 75.214844 C 125.222656 81.253906 128.371094 82.835938 131.09375 82.835938 C 133.71875 82.835938 135.433594 81.394531 137.140625 79.023438 C 143.964844 69.300781 151.183594 57.765625 154.046875 52.761719 C 154.578125 51.863281 155.230469 51.183594 155.757812 51.183594 C 156.269531 51.183594 156.535156 51.46875 156.535156 53.152344 L 156.535156 76.664062 C 156.535156 80.859375 157.847656 82.835938 161.136719 82.835938 C 164.136719 82.835938 166.097656 80.722656 167.269531 78.234375 C 171.625 69.175781 178.03125 57.226562 180.800781 52.519531 C 181.441406 51.46875 182.101562 50.542969 182.492188 50.542969 C 183.035156 50.542969 183.15625 51.183594 183.15625 52.902344 L 183.15625 75.214844 C 183.15625 81.253906 186.304688 82.835938 189.074219 82.835938 C 192.714844 82.835938 195.101562 80.199219 197.457031 77.191406 C 201.757812 71.523438 208.054688 61.457031 211.863281 54.996094 C 213.183594 57.105469 214.609375 59.605469 215.8125 62.355469 C 212.660156 66.160156 209.507812 70.480469 209.507812 75.066406 C 209.507812 79.933594 212.914062 82.835938 216.457031 82.835938 C 222.476562 82.835938 227.976562 77.042969 227.976562 69.050781 C 227.976562 65.910156 227.074219 62.621094 225.90625 59.480469 C 231.25 54.214844 237.683594 49.09375 242.425781 47.917969 Z M 26.472656 76.53125 C 27.53125 83.476562 28.453125 90.320312 28.453125 95.691406 C 28.453125 108.269531 24.269531 122.976562 17.054688 122.855469 C 14.265625 122.855469 11.925781 120.066406 11.808594 115.238281 C 11.542969 99.503906 19.015625 86.109375 26.472656 76.53125 Z M 217.890625 67.585938 C 218.683594 69.84375 219.085938 71.667969 219.085938 73.503906 C 219.085938 75.609375 218.292969 77.710938 216.84375 77.710938 C 215.8125 77.710938 214.761719 76.53125 214.761719 74.6875 C 214.761719 72.714844 216.457031 69.5625 217.890625 67.585938 Z M 31.203125 4.988281 C 31.203125 5.789062 29.367188 9.453125 27.015625 16.023438 C 24.523438 22.835938 22.148438 32.539062 22.148438 44.226562 C 22.148438 51.183594 23.867188 60.386719 25.320312 69.699219 L 21.121094 75.363281 C 14.425781 67.203125 10.238281 58.03125 10.238281 42.273438 C 10.238281 19.964844 23.738281 4.492188 30.675781 4.492188 C 31.089844 4.492188 31.203125 4.609375 31.203125 4.988281 Z M 31.203125 4.988281 "/>
<path style=" stroke:none;fill-rule:evenodd;fill:rgb(83.529413%,9.803922%,0%);fill-opacity:1;" d="M 646.847656 47.527344 C 646.847656 46.335938 647.613281 45.699219 648.675781 45.699219 C 650.367188 45.699219 652.992188 47.527344 654.429688 51.183594 C 653.917969 51.183594 653.132812 51.34375 652.585938 51.34375 C 649.464844 51.34375 646.847656 49.851562 646.847656 47.527344 Z M 457.257812 47.527344 C 457.257812 46.335938 458.058594 45.699219 459.09375 45.699219 C 460.800781 45.699219 463.316406 47.527344 464.730469 51.183594 C 459.878906 51.183594 457.257812 50.136719 457.257812 47.527344 Z M 493.839844 28.628906 C 493.839844 9.0625 497.625 6.054688 498.820312 6.054688 C 500.914062 6.054688 501.179688 7.367188 501.179688 14.871094 C 501.179688 22.582031 497.890625 32.671875 493.839844 38.210938 Z M 410.996094 76.53125 C 412.011719 83.476562 412.964844 90.320312 412.964844 95.691406 C 412.964844 108.269531 408.777344 122.976562 401.546875 122.855469 C 398.800781 122.855469 396.4375 120.066406 396.308594 115.238281 C 396.039062 99.503906 403.523438 86.109375 410.996094 76.53125 Z M 602.40625 67.585938 C 603.203125 69.84375 603.578125 71.667969 603.578125 73.503906 C 603.578125 75.609375 602.792969 77.710938 601.351562 77.710938 C 600.316406 77.710938 599.238281 76.53125 599.238281 74.6875 C 599.238281 72.714844 600.957031 69.5625 602.40625 67.585938 Z M 415.691406 4.988281 C 415.691406 5.789062 413.871094 9.453125 411.496094 16.023438 C 409.023438 22.835938 406.648438 32.539062 406.648438 44.226562 C 406.648438 51.183594 408.398438 60.386719 409.828125 69.699219 L 405.621094 75.363281 C 398.945312 67.203125 394.726562 58.03125 394.726562 42.273438 C 394.726562 19.964844 408.257812 4.492188 415.195312 4.492188 C 415.574219 4.492188 415.691406 4.609375 415.691406 4.988281 Z M 393.832031 70.613281 C 396.171875 73.765625 399.066406 76.78125 402.472656 80.0625 C 395.519531 91.222656 390.019531 104.472656 390.019531 116.289062 C 390.019531 124.804688 392 131.257812 398.292969 131.257812 C 411.390625 131.257812 421.214844 103.96875 421.214844 83.742188 C 421.214844 77.710938 420.957031 71.667969 420.433594 65.640625 C 425.292969 60.492188 432.738281 53.558594 434.597656 52.902344 C 433.808594 55.660156 433.265625 58.558594 433.265625 61.289062 C 433.265625 72.3125 439.5625 82.835938 451.769531 82.835938 C 463.164062 82.835938 471.8125 73.503906 471.8125 60.492188 C 471.8125 58.8125 471.695312 57.351562 471.550781 55.78125 C 475.753906 54.996094 479.578125 53.921875 483.226562 51.726562 L 483.226562 78.101562 C 483.226562 81.5 485.574219 82.835938 487.789062 82.835938 C 490.84375 82.835938 492.414062 80.722656 494.632812 75.894531 C 496.460938 71.9375 501.453125 62.890625 504.476562 57.492188 C 506.828125 53.277344 508.136719 50.542969 509.210938 50.542969 C 509.457031 50.542969 509.703125 51.183594 509.703125 52.761719 L 509.703125 75.214844 C 509.703125 81.253906 512.84375 82.835938 515.597656 82.835938 C 518.230469 82.835938 519.917969 81.394531 521.65625 79.023438 C 528.453125 69.300781 535.675781 57.765625 538.550781 52.761719 C 539.078125 51.863281 539.742188 51.183594 540.25 51.183594 C 540.761719 51.183594 541.050781 51.46875 541.050781 53.152344 L 541.050781 76.664062 C 541.050781 80.859375 542.34375 82.835938 545.617188 82.835938 C 548.636719 82.835938 550.601562 80.722656 551.792969 78.234375 C 556.121094 69.175781 562.542969 57.226562 565.285156 52.519531 C 565.953125 51.46875 566.605469 50.542969 567.015625 50.542969 C 567.527344 50.542969 567.671875 51.183594 567.671875 52.902344 L 567.671875 75.214844 C 567.671875 81.253906 570.789062 82.835938 573.535156 82.835938 C 577.234375 82.835938 579.59375 80.199219 581.9375 77.191406 C 586.261719 71.523438 592.570312 61.457031 596.367188 54.996094 C 597.664062 57.105469 599.125 59.605469 600.316406 62.355469 C 597.136719 66.160156 594.019531 70.480469 594.019531 75.066406 C 594.019531 79.933594 597.390625 82.835938 600.957031 82.835938 C 606.976562 82.835938 612.476562 77.042969 612.476562 69.050781 C 612.476562 65.910156 611.566406 62.621094 610.386719 59.480469 C 615.753906 54.214844 622.183594 49.09375 626.902344 47.917969 C 624.675781 51.0625 622.839844 55.53125 622.839844 61.289062 C 622.839844 72.3125 629.140625 82.835938 641.335938 82.835938 C 653.132812 82.835938 661.371094 73.503906 661.371094 60.492188 C 661.371094 56.714844 661.25 56.191406 661.003906 54.625 C 663.726562 53.429688 666.105469 51.597656 667.960938 50.136719 C 669.496094 48.957031 670.703125 48.292969 671.605469 48.292969 C 672.789062 48.292969 673.34375 49.214844 673.34375 50.917969 L 673.34375 76.664062 C 673.34375 80.859375 674.636719 82.835938 677.914062 82.835938 C 680.917969 82.835938 683.027344 80.722656 684.214844 78.234375 C 688.511719 69.175781 694.816406 57.105469 697.558594 52.519531 C 698.214844 51.46875 698.75 50.664062 699.144531 50.664062 C 699.679688 50.664062 699.9375 51.0625 699.9375 52.761719 L 699.9375 73.257812 C 699.9375 79.023438 702.535156 82.835938 708.316406 82.835938 C 714.367188 82.835938 717.375 77.042969 722.628906 68.121094 C 722.875 67.585938 723 67.203125 723 66.824219 C 723 65.640625 721.949219 64.96875 720.90625 64.96875 C 719.738281 64.96875 719.066406 66.160156 715.144531 70.480469 C 714.367188 71.300781 713.566406 72.4375 712.132812 72.4375 C 711.589844 72.4375 711.21875 71.804688 711.21875 71.003906 L 711.21875 48.027344 C 711.21875 41.859375 708.433594 39.367188 704.894531 39.367188 C 702.027344 39.367188 699.679688 40.550781 697.179688 44.226562 C 692.710938 50.804688 688.136719 60.128906 685.664062 64.828125 C 685.378906 65.378906 685 66.160156 684.71875 66.160156 C 684.441406 66.160156 684.339844 65.757812 684.339844 64.828125 L 684.339844 48.027344 C 684.339844 43.183594 683.027344 39.367188 677.914062 39.367188 C 672.523438 39.367188 669.785156 43.050781 665.859375 45.800781 C 663.34375 47.65625 661.128906 48.957031 659.410156 49.742188 C 656.8125 43.050781 651.941406 39.65625 647.898438 39.757812 C 643.8125 39.898438 640.953125 42.40625 640.953125 46.609375 C 640.953125 50.917969 643.574219 53.921875 647.085938 55.257812 C 649.054688 56.042969 650.890625 56.191406 653.546875 56.191406 C 654.316406 56.191406 655.078125 56.191406 655.636719 56.042969 C 655.890625 57.351562 655.757812 59.214844 655.757812 60.652344 C 655.757812 67.09375 651.945312 73.503906 644.859375 73.503906 C 637.523438 73.503906 633.210938 66.417969 633.210938 58.285156 C 633.210938 52.109375 635.035156 47 638.039062 43.46875 C 639.234375 42.148438 640.160156 41.347656 640.160156 40.136719 C 640.160156 39.523438 639.234375 39.367188 638.449219 39.367188 C 633.488281 39.367188 627.964844 41.605469 624.160156 43.566406 C 619.171875 46.195312 613.273438 50.542969 608.4375 54.871094 C 606.070312 49.605469 603.203125 45.011719 601.742188 41.457031 C 601.203125 40.015625 600.847656 38.339844 599.757812 38.339844 C 598.851562 38.339844 598.449219 39.257812 597.804688 41.066406 C 595.4375 48.027344 582.863281 68.390625 580.109375 71.144531 C 579.84375 71.523438 579.453125 71.9375 579.316406 71.9375 C 579.070312 71.9375 578.925781 71.804688 578.925781 71.003906 L 578.925781 48.027344 C 578.925781 41.859375 576.453125 39.367188 573.011719 39.367188 C 570.125 39.367188 567.671875 40.550781 565.285156 44.226562 C 560.949219 50.804688 555.722656 60.386719 553.230469 65.101562 C 552.84375 65.910156 552.457031 66.160156 552.332031 66.160156 C 552.183594 66.160156 552.046875 65.640625 552.046875 64.828125 L 552.046875 48.027344 C 552.046875 41.859375 549.574219 39.367188 546.164062 39.367188 C 543.269531 39.367188 540.5 40.445312 538.292969 44.226562 C 532.769531 53.558594 523.605469 67.863281 521.890625 70.210938 C 521.65625 70.613281 521.378906 70.878906 521.097656 71.003906 C 520.867188 71.003906 520.714844 70.75 520.714844 70.097656 L 520.714844 48.027344 C 520.714844 41.859375 518.230469 39.367188 514.808594 39.367188 C 510.074219 39.367188 507.472656 43.71875 505.757812 46.460938 C 503.398438 50.265625 500.273438 55.398438 497.769531 60.128906 C 496.078125 63.296875 494.632812 66.160156 494.105469 66.160156 C 493.839844 66.160156 493.839844 64.96875 493.839844 62.746094 L 493.839844 45.164062 C 502.113281 35.957031 507.207031 24.679688 507.207031 12.34375 C 507.207031 5.238281 504.070312 1.320312 499.203125 1.320312 C 490.167969 1.320312 483.226562 15.503906 483.226562 32.289062 L 483.226562 45.9375 C 479.019531 48.570312 475.085938 49.851562 470.226562 50.804688 C 467.753906 43.46875 462.507812 39.65625 458.335938 39.757812 C 454.246094 39.898438 451.371094 42.40625 451.371094 46.609375 C 451.371094 53.558594 458.167969 56.445312 464.214844 56.445312 L 465.929688 56.445312 C 466.171875 57.765625 466.171875 59.214844 466.171875 60.652344 C 466.171875 67.09375 462.382812 73.503906 455.296875 73.503906 C 447.949219 73.503906 443.644531 66.417969 443.644531 58.285156 C 443.644531 52.109375 445.476562 47 448.472656 43.46875 C 449.648438 42.148438 450.574219 40.964844 450.574219 40.136719 C 450.574219 39.523438 449.648438 39.367188 448.871094 39.367188 C 443.882812 39.367188 432.878906 46.089844 419.753906 59.214844 C 418.601562 48.710938 417.277344 38.460938 417.277344 28.480469 C 417.277344 17.332031 419.503906 7.859375 420.027344 5.128906 C 420.289062 3.433594 420.433594 2.367188 420.433594 1.597656 C 420.433594 0.539062 419.898438 0 418.480469 0 C 407.859375 0 384.519531 16.941406 384.519531 42.273438 C 384.519531 52.628906 386.746094 59.996094 390.679688 66.417969 C 389.214844 66.160156 388.0625 66.160156 386.988281 66.160156 C 382.808594 66.160156 378.859375 67.203125 376.410156 67.738281 L 376.410156 65.101562 C 376.410156 59.480469 375.082031 51.726562 372.714844 49.09375 C 372.433594 48.824219 372.042969 48.710938 371.679688 48.710938 C 370.597656 48.710938 369.308594 49.214844 367.871094 50.011719 C 366.28125 50.804688 364.707031 51.597656 364.707031 52.109375 C 364.707031 52.363281 364.707031 52.628906 365.105469 53.277344 C 366.03125 54.625 368.527344 57.226562 369.425781 63.410156 C 364.960938 58.941406 359.871094 56.960938 353.207031 56.960938 C 345.328125 56.960938 342.957031 60.492188 342.957031 64.058594 C 342.957031 70.878906 352.003906 74.292969 363.425781 74.292969 C 365.519531 74.292969 367.871094 73.894531 370.21875 73.359375 C 370.21875 75.464844 370.484375 77.328125 370.484375 78.890625 C 370.484375 81.125 370.863281 82.835938 372.324219 82.835938 C 374.546875 82.835938 375.867188 78.355469 376.117188 71.9375 C 380.179688 70.878906 384.382812 69.972656 387.9375 69.972656 C 389.632812 69.972656 391.753906 70.210938 393.832031 70.613281 Z M 368.003906 69.300781 C 365.796875 69.5625 364.453125 69.5625 362.117188 69.5625 C 356.988281 69.5625 353.207031 67.585938 353.207031 64.722656 C 353.207031 62.890625 354.113281 61.824219 356.738281 61.824219 C 360.9375 61.824219 364.328125 64.722656 368.003906 69.300781 Z M 368.003906 69.300781 "/>
</g>
</svg>
