<?xml version="1.0" encoding="UTF-8"?>
<svg xmlns="http://www.w3.org/2000/svg" xmlns:xlink="http://www.w3.org/1999/xlink" width="209px" height="131px" viewBox="0 0 444 131" version="1.1">
<g id="surface1">
<path style=" stroke:none;fill-rule:evenodd;fill:rgb(0%,0%,62.7451%);fill-opacity:1;" d="M 177.484375 4.035156 C 175.441406 4.035156 174.539062 5.25 173.78125 6.984375 C 126.128906 116.46875 122.128906 125.125 122.128906 125.125 C 149.132812 125.125 149.132812 125.125 149.132812 125.125 C 154.753906 111.386719 154.753906 111.386719 154.753906 111.386719 C 195.4375 111.386719 195.4375 111.386719 195.4375 111.386719 C 201.078125 125.125 201.078125 125.125 201.078125 125.125 C 232.835938 125.125 232.835938 125.125 232.835938 125.125 C 232.835938 125.125 230.121094 119.5 181.1875 6.984375 C 180.429688 5.25 179.527344 4.035156 177.484375 4.035156 M 163.339844 90.441406 C 175.0625 61.777344 175.0625 61.777344 175.0625 61.777344 C 186.828125 90.441406 186.828125 90.441406 186.828125 90.441406 Z M 312.375 70.121094 C 321.65625 64.601562 328.683594 54.964844 328.683594 41.144531 C 328.683594 30.292969 324.328125 21.347656 316.75 15.304688 C 309.070312 9.15625 300.1875 5.832031 282.023438 5.832031 C 243.171875 5.832031 243.171875 5.832031 243.171875 5.832031 C 243.171875 125.125 243.171875 125.125 243.171875 125.125 C 271.878906 125.125 271.878906 125.125 271.878906 125.125 C 271.878906 80.71875 271.878906 80.71875 271.878906 80.71875 C 280.78125 80.71875 280.78125 80.71875 280.78125 80.71875 C 290.464844 80.71875 295.347656 84.378906 299.410156 94.058594 C 302.839844 102.253906 305.257812 111.972656 308.417969 125.125 C 340.429688 125.125 340.429688 125.125 340.429688 125.125 C 335.882812 111.597656 333.609375 105.199219 330.199219 95.667969 C 325.527344 82.621094 319.867188 74.59375 312.375 70.121094 M 294.019531 55.484375 C 290.546875 58.140625 286.066406 58.976562 278.003906 58.976562 C 271.878906 58.976562 271.878906 58.976562 271.878906 58.976562 C 271.878906 58.976562 271.816406 27.179688 271.878906 27.179688 C 278.003906 27.179688 278.003906 27.179688 278.003906 27.179688 C 286.421875 27.179688 290.609375 28.097656 294 30.648438 C 297.871094 33.574219 299.597656 37.964844 299.597656 43.046875 C 299.597656 48.585938 297.660156 52.664062 294.019531 55.484375 M 57.726562 56.386719 C 8.960938 7.925781 8.960938 7.925781 8.960938 7.925781 C 7.488281 6.480469 6.015625 5.457031 3.699219 5.457031 C 3.699219 125.125 3.699219 125.125 3.699219 125.125 C 28.765625 125.125 28.765625 125.125 28.765625 125.125 C 28.765625 67.902344 28.765625 67.902344 28.765625 67.902344 C 57.726562 96.671875 57.726562 96.671875 57.726562 96.671875 C 86.707031 67.902344 86.707031 67.902344 86.707031 67.902344 C 86.707031 125.125 86.707031 125.125 86.707031 125.125 C 111.777344 125.125 111.777344 125.125 111.777344 125.125 C 111.777344 5.457031 111.777344 5.457031 111.777344 5.457031 C 109.460938 5.457031 107.988281 6.480469 106.515625 7.925781 Z M 429.816406 65.605469 C 417.019531 53.519531 393.804688 51.449219 384.628906 44.34375 C 381.027344 41.5625 379.746094 37.464844 380.921875 33.554688 C 382.375 28.707031 387.238281 25.527344 394.371094 25.527344 C 404.199219 25.527344 413.019531 29.980469 419.125 37.191406 C 435.519531 20.15625 435.519531 20.15625 435.519531 20.15625 C 425.859375 9.953125 410.429688 3.804688 394.183594 3.804688 C 375.238281 3.804688 360.949219 12.902344 354.574219 27.410156 C 349.625 38.675781 351.332031 50.425781 357.414062 58.871094 C 369.179688 75.222656 394.015625 75.722656 404.769531 84.105469 C 408.597656 87.09375 410.746094 91.925781 408.453125 97.128906 C 406.472656 101.6875 401.484375 104.78125 393.320312 104.992188 C 381.996094 105.261719 371.894531 99.996094 364.464844 90.773438 C 348.046875 107.835938 348.046875 107.835938 348.046875 107.835938 C 358.90625 120.902344 375.070312 127.195312 394.601562 127.195312 C 413.585938 127.195312 430.257812 119.855469 437.054688 104.21875 C 443.011719 90.546875 440.863281 76.015625 429.816406 65.605469 "/>
</g>
</svg>
