<?xml version="1.0" encoding="UTF-8"?>
<svg xmlns="http://www.w3.org/2000/svg" xmlns:xlink="http://www.w3.org/1999/xlink" width="209px" height="131px" viewBox="0 0 632 131" version="1.1">
<g id="surface1">
<path style=" stroke:none;fill-rule:nonzero;fill:rgb(0%,7.843138%,54.901963%);fill-opacity:1;" d="M 156.777344 40.492188 L 156.777344 47 L 143.949219 47 L 143.949219 89.734375 C 143.949219 89.769531 143.949219 89.804688 143.949219 89.839844 C 143.960938 94.800781 144.730469 97.703125 150.1875 98.074219 C 152.382812 98.074219 154.582031 97.953125 156.777344 97.703125 L 156.777344 104.339844 C 154.453125 104.339844 152.257812 104.589844 149.933594 104.589844 C 142.375 104.589844 138.464844 102.71875 136.984375 97.394531 C 136.976562 97.371094 136.96875 97.34375 136.960938 97.320312 C 136.453125 95.441406 136.238281 93.140625 136.269531 90.34375 L 136.269531 47 L 136.265625 47 L 136.265625 46.988281 L 125.269531 46.988281 L 125.269531 40.492188 L 136.269531 40.492188 L 136.269531 21.457031 L 143.949219 21.457031 L 143.78125 40.484375 L 143.949219 40.484375 L 143.949219 40.492188 L 156.777344 40.492188 L 156.777344 40.484375 L 143.949219 40.484375 Z M 394.261719 16.175781 L 394.261719 16.164062 L 401.957031 16.164062 L 401.957031 103.835938 L 401.941406 103.835938 L 401.941406 103.847656 L 394.261719 103.847656 Z M 260.925781 40.492188 L 260.925781 40.484375 L 268.621094 40.484375 L 268.621094 51.414062 L 268.863281 51.414062 C 269.402344 49.964844 270.144531 48.601562 271.050781 47.347656 C 271.105469 47.277344 271.15625 47.203125 271.210938 47.132812 C 275.097656 41.933594 281.894531 38.644531 289.015625 38.644531 C 306.722656 38.644531 312.09375 47.980469 312.09375 63.082031 L 312.09375 103.847656 L 304.402344 103.847656 L 304.402344 64.308594 C 304.402344 60.933594 304.066406 57.816406 303.230469 55.121094 C 303.21875 55.089844 303.210938 55.058594 303.199219 55.027344 C 301.316406 49.046875 296.964844 45.160156 288.398438 45.160156 C 276.179688 45.160156 268.863281 54.488281 268.621094 66.886719 L 268.621094 103.847656 L 260.921875 103.847656 L 260.921875 40.492188 Z M 7.695312 40.492188 L 7.695312 51.414062 L 7.9375 51.414062 C 9.042969 48.417969 11.019531 45.800781 13.558594 43.726562 C 13.566406 43.722656 13.574219 43.714844 13.582031 43.710938 C 17.480469 40.535156 22.695312 38.644531 28.082031 38.644531 C 45.785156 38.644531 51.160156 47.980469 51.160156 63.082031 L 51.160156 103.847656 L 43.464844 103.847656 L 43.464844 64.308594 C 43.464844 53.386719 39.925781 45.160156 27.476562 45.160156 C 15.257812 45.160156 7.9375 54.488281 7.695312 66.886719 L 7.695312 103.847656 L 0 103.847656 L 0 40.484375 L 7.695312 40.484375 Z M 549.277344 0 L 561.839844 12.617188 L 549.277344 25.242188 L 536.730469 12.617188 Z M 540.769531 103.824219 L 540.769531 38.078125 L 557.839844 38.078125 L 557.839844 103.824219 Z M 445.171875 89.734375 C 456.777344 89.734375 459.703125 79.777344 459.703125 70.8125 C 459.703125 60.265625 454.574219 51.664062 445.042969 51.664062 C 438.699219 51.664062 431.613281 56.339844 431.613281 71.5625 C 431.613281 79.90625 435.035156 89.734375 445.171875 89.734375 Z M 476.675781 38.523438 L 476.675781 100.410156 C 476.675781 111.714844 475.8125 130.503906 443.828125 130.503906 C 430.394531 130.503906 416.238281 124.730469 415.5 110.851562 L 434.054688 110.851562 C 434.804688 114.167969 436.136719 117.472656 446.03125 117.472656 C 455.183594 117.472656 459.574219 113.0625 459.574219 102.496094 L 459.574219 94.644531 L 459.335938 94.394531 C 456.542969 99.4375 452.25 104.214844 442.003906 104.214844 C 426.378906 104.214844 414.035156 93.292969 414.035156 70.449219 C 414.035156 47.855469 426.738281 36.804688 441.011719 36.804688 C 453.109375 36.804688 457.988281 43.929688 460.066406 48.226562 L 460.3125 48.226562 L 460.3125 38.523438 Z M 491.328125 38.527344 L 507.675781 38.527344 L 507.675781 49.828125 L 507.933594 49.828125 C 511.472656 43.191406 515.375 36.800781 525.761719 36.800781 C 526.851562 36.800781 527.960938 36.925781 529.054688 37.046875 L 529.054688 54.488281 C 527.597656 54.246094 525.761719 54.246094 524.167969 54.246094 C 510.867188 54.246094 508.414062 62.589844 508.414062 69.839844 L 508.414062 103.851562 L 491.328125 103.851562 Z M 600.503906 91.453125 C 611.371094 91.453125 615.648438 82.363281 615.648438 72.667969 C 615.648438 62.226562 612.714844 51.667969 600.996094 51.667969 C 590.125 51.667969 586.46875 61.367188 586.46875 71.679688 C 586.46875 79.425781 589.507812 91.453125 600.503906 91.453125 Z M 632 103.847656 L 615.28125 103.847656 L 615.28125 95.625 L 615.03125 95.625 C 610.878906 103 603.3125 105.570312 596.226562 105.570312 C 576.953125 105.570312 568.878906 88.386719 568.878906 70.449219 C 568.878906 47.855469 581.570312 36.804688 595.859375 36.804688 C 606.851562 36.804688 611.980469 42.828125 614.664062 47 L 614.898438 47 L 614.898438 15.683594 L 632 15.683594 Z M 105.980469 69.222656 L 105.742188 69.222656 C 104.757812 71.074219 101.339844 71.675781 99.277344 72.046875 C 86.199219 74.382812 69.960938 74.261719 69.960938 86.65625 C 69.960938 94.398438 76.8125 99.183594 84.003906 99.183594 C 95.722656 99.183594 106.105469 91.691406 105.980469 79.292969 Z M 64.960938 59.890625 C 65.683594 45.039062 76.066406 38.644531 90.476562 38.644531 C 101.589844 38.644531 113.671875 42.082031 113.671875 59.035156 L 113.671875 92.671875 C 113.671875 95.625 115.132812 97.34375 118.195312 97.34375 C 119.046875 97.34375 120.023438 97.097656 120.640625 96.847656 L 120.640625 103.355469 C 118.921875 103.726562 117.703125 103.847656 115.628906 103.847656 C 107.820312 103.847656 106.597656 99.4375 106.597656 92.804688 L 106.351562 92.804688 C 100.972656 101.023438 95.484375 105.699219 83.398438 105.699219 C 71.792969 105.699219 62.257812 99.921875 62.257812 87.152344 C 62.257812 69.34375 79.492188 68.734375 96.089844 66.769531 C 102.445312 66.035156 105.980469 65.171875 105.980469 58.175781 C 105.980469 47.738281 98.527344 45.148438 89.496094 45.148438 C 79.976562 45.148438 72.898438 49.578125 72.644531 59.890625 Z M 170.699219 28.582031 L 170.699219 16.179688 L 178.398438 16.179688 L 178.398438 28.582031 Z M 170.691406 103.847656 L 170.691406 40.484375 L 178.398438 40.484375 L 178.398438 103.847656 Z M 197.683594 72.171875 C 197.683594 85.675781 205.007812 99.183594 219.785156 99.183594 C 234.554688 99.183594 241.882812 85.675781 241.882812 72.171875 C 241.882812 58.660156 234.554688 45.148438 219.785156 45.148438 C 205.007812 45.148438 197.683594 58.660156 197.683594 72.171875 Z M 249.566406 72.171875 C 249.566406 90.347656 239.074219 105.699219 219.785156 105.699219 C 200.484375 105.699219 189.988281 90.347656 189.988281 72.171875 C 189.988281 53.996094 200.484375 38.644531 219.785156 38.644531 C 239.074219 38.644531 249.566406 53.996094 249.566406 72.171875 Z M 366.902344 69.222656 L 366.664062 69.222656 C 365.683594 71.074219 362.265625 71.675781 360.191406 72.046875 C 347.121094 74.382812 330.894531 74.261719 330.894531 86.65625 C 330.894531 94.398438 337.730469 99.183594 344.9375 99.183594 C 356.652344 99.183594 367.03125 91.691406 366.902344 79.292969 Z M 325.878906 59.890625 C 326.628906 45.039062 336.992188 38.644531 351.394531 38.644531 C 362.511719 38.644531 374.59375 42.082031 374.59375 59.035156 L 374.59375 92.671875 C 374.59375 95.625 376.0625 97.34375 379.113281 97.34375 C 379.972656 97.34375 380.949219 97.097656 381.566406 96.847656 L 381.566406 103.355469 C 379.847656 103.726562 378.609375 103.847656 376.550781 103.847656 C 368.726562 103.847656 367.511719 99.4375 367.511719 92.804688 L 367.265625 92.804688 C 361.898438 101.023438 356.410156 105.699219 344.316406 105.699219 C 332.726562 105.699219 323.199219 99.921875 323.199219 87.152344 C 323.199219 69.34375 340.40625 68.734375 357.015625 66.769531 C 363.363281 66.035156 366.902344 65.171875 366.902344 58.175781 C 366.902344 47.738281 359.449219 45.148438 350.410156 45.148438 C 340.902344 45.148438 333.816406 49.578125 333.570312 59.890625 Z M 325.878906 59.890625 "/>
</g>
</svg>
